<svg width="380" height="24" viewBox="0 0 380 24" fill="none" xmlns="http://www.w3.org/2000/svg">
<path d="M9.37734 19.072C14.1533 19.072 17.8733 15.328 17.8733 10.552C17.8733 5.776 14.2493 2.128 9.42534 2.128C4.60134 2.128 0.929344 5.872 0.929344 10.6C0.929344 15.328 4.60134 19.072 9.37734 19.072ZM9.37734 17.992C5.20134 17.992 2.05734 14.728 2.05734 10.6C2.05734 6.472 5.20134 3.208 9.42534 3.208C13.6493 3.208 16.7453 6.376 16.7453 10.552C16.7453 14.728 13.5533 17.992 9.37734 17.992ZM9.64134 15.544C11.3453 15.544 12.7613 14.776 13.5293 13.576L12.1613 12.616C11.5613 13.504 10.6493 13.912 9.61734 13.912C7.79334 13.912 6.40134 12.616 6.40134 10.6C6.40134 8.584 7.79334 7.288 9.61734 7.288C10.6493 7.288 11.5613 7.696 12.1613 8.584L13.5293 7.6C12.7613 6.424 11.3453 5.656 9.64134 5.656C6.68934 5.656 4.57734 7.696 4.57734 10.6C4.57734 13.504 6.68934 15.544 9.64134 15.544ZM29.8088 16.912L34.9448 11.968C37.2248 9.784 37.7048 8.32 37.7048 6.688C37.7048 3.808 35.4488 2.008 31.9448 2.008C29.3288 2.008 27.0968 2.944 25.8008 4.552L27.4328 5.968C28.4648 4.72 29.9288 4.144 31.7288 4.144C34.0808 4.144 35.3048 5.2 35.3048 6.928C35.3048 7.984 34.9688 9.04 33.1928 10.768L26.3528 17.368V19H38.4248V16.912H29.8088ZM47.1918 19.192C51.1038 19.192 54.0318 16.072 54.0318 10.6C54.0318 5.128 51.1038 2.008 47.1918 2.008C43.2558 2.008 40.3278 5.128 40.3278 10.6C40.3278 16.072 43.2558 19.192 47.1918 19.192ZM47.1918 17.056C44.5518 17.056 42.7278 14.896 42.7278 10.6C42.7278 6.304 44.5518 4.144 47.1918 4.144C49.8078 4.144 51.6318 6.304 51.6318 10.6C51.6318 14.896 49.8078 17.056 47.1918 17.056ZM59.4573 16.912L64.5933 11.968C66.8733 9.784 67.3533 8.32 67.3533 6.688C67.3533 3.808 65.0973 2.008 61.5933 2.008C58.9773 2.008 56.7453 2.944 55.4493 4.552L57.0813 5.968C58.1133 4.72 59.5773 4.144 61.3773 4.144C63.7293 4.144 64.9533 5.2 64.9533 6.928C64.9533 7.984 64.6173 9.04 62.8413 10.768L56.0013 17.368V19H68.0733V16.912H59.4573ZM76.8402 19.192C80.7522 19.192 83.6802 16.072 83.6802 10.6C83.6802 5.128 80.7522 2.008 76.8402 2.008C72.9042 2.008 69.9762 5.128 69.9762 10.6C69.9762 16.072 72.9042 19.192 76.8402 19.192ZM76.8402 17.056C74.2002 17.056 72.3762 14.896 72.3762 10.6C72.3762 6.304 74.2002 4.144 76.8402 4.144C79.4562 4.144 81.2802 6.304 81.2802 10.6C81.2802 14.896 79.4562 17.056 76.8402 17.056ZM105.701 19H108.509L100.877 9.76L108.053 2.2H105.317L96.1973 11.584V2.2H93.7973V19H96.1973V14.656L99.2693 11.536L105.701 19ZM115.039 6.16C112.999 6.16 111.103 6.736 109.783 7.792L110.743 9.52C111.727 8.68 113.263 8.152 114.775 8.152C117.055 8.152 118.183 9.28 118.183 11.224V11.68H114.535C110.743 11.68 109.423 13.36 109.423 15.4C109.423 17.608 111.247 19.144 114.127 19.144C116.119 19.144 117.535 18.472 118.303 17.32V19H120.487V11.32C120.487 7.84 118.519 6.16 115.039 6.16ZM114.511 17.368C112.759 17.368 111.703 16.576 111.703 15.304C111.703 14.224 112.351 13.336 114.631 13.336H118.183V15.112C117.607 16.576 116.239 17.368 114.511 17.368ZM128.398 19.144C131.782 19.144 133.894 17.68 133.894 15.376C133.894 10.432 125.83 12.88 125.83 9.88C125.83 8.872 126.814 8.128 128.83 8.128C130.078 8.128 131.35 8.392 132.502 9.136L133.486 7.312C132.382 6.592 130.51 6.16 128.854 6.16C125.59 6.16 123.55 7.696 123.55 9.976C123.55 15.04 131.59 12.568 131.59 15.424C131.59 16.504 130.702 17.152 128.566 17.152C126.91 17.152 125.182 16.6 124.102 15.832L123.142 17.656C124.198 18.496 126.286 19.144 128.398 19.144ZM141.406 6.16C139.366 6.16 137.47 6.736 136.15 7.792L137.11 9.52C138.094 8.68 139.63 8.152 141.142 8.152C143.422 8.152 144.55 9.28 144.55 11.224V11.68H140.902C137.11 11.68 135.79 13.36 135.79 15.4C135.79 17.608 137.614 19.144 140.494 19.144C142.486 19.144 143.902 18.472 144.67 17.32V19H146.854V11.32C146.854 7.84 144.886 6.16 141.406 6.16ZM140.878 17.368C139.126 17.368 138.07 16.576 138.07 15.304C138.07 14.224 138.718 13.336 140.998 13.336H144.55V15.112C143.974 16.576 142.606 17.368 140.878 17.368ZM151.67 19.144C152.534 19.144 153.254 18.448 153.254 17.488C153.254 16.528 152.534 15.856 151.67 15.856C150.782 15.856 150.038 16.528 150.038 17.488C150.038 18.448 150.782 19.144 151.67 19.144ZM175.888 19H178.408L170.776 2.2H168.4L160.792 19H163.264L165.112 14.8H174.04L175.888 19ZM165.952 12.88L169.576 4.648L173.2 12.88H165.952ZM180.579 19H182.883V1.192H180.579V19ZM187.282 19H189.586V1.192H187.282V19ZM202.638 8.416V6.28H200.43V19H202.734V12.664C202.734 9.88 204.27 8.368 206.742 8.368C206.91 8.368 207.078 8.368 207.27 8.392V6.16C205.038 6.16 203.454 6.928 202.638 8.416ZM211.262 3.832C212.174 3.832 212.822 3.16 212.822 2.296C212.822 1.48 212.15 0.831999 211.262 0.831999C210.374 0.831999 209.702 1.504 209.702 2.344C209.702 3.184 210.374 3.832 211.262 3.832ZM210.11 19H212.414V6.28H210.11V19ZM226.797 6.28V8.248C225.717 6.856 223.989 6.16 222.093 6.16C218.421 6.16 215.637 8.632 215.637 12.304C215.637 15.976 218.421 18.472 222.093 18.472C223.917 18.472 225.573 17.824 226.677 16.504V17.512C226.677 20.392 225.309 21.784 222.309 21.784C220.437 21.784 218.589 21.136 217.413 20.128L216.309 21.904C217.701 23.152 220.053 23.8 222.381 23.8C226.701 23.8 228.981 21.76 228.981 17.272V6.28H226.797ZM222.357 16.456C219.789 16.456 217.965 14.752 217.965 12.304C217.965 9.832 219.789 8.176 222.357 8.176C224.901 8.176 226.725 9.832 226.725 12.304C226.725 14.752 224.901 16.456 222.357 16.456ZM240.175 6.16C238.231 6.16 236.647 6.856 235.687 8.08V1.192H233.383V19H235.687V12.448C235.687 9.688 237.271 8.224 239.719 8.224C241.903 8.224 243.151 9.448 243.151 11.944V19H245.455V11.68C245.455 7.936 243.271 6.16 240.175 6.16ZM256.151 16.6C255.671 16.984 255.023 17.2 254.351 17.2C253.079 17.2 252.359 16.432 252.359 15.064V8.176H256.007V6.28H252.359V3.496H250.055V6.28H247.895V8.176H250.055V15.16C250.055 17.728 251.519 19.144 254.087 19.144C255.119 19.144 256.175 18.856 256.871 18.256L256.151 16.6ZM263.305 19.144C266.689 19.144 268.801 17.68 268.801 15.376C268.801 10.432 260.737 12.88 260.737 9.88C260.737 8.872 261.721 8.128 263.737 8.128C264.985 8.128 266.257 8.392 267.409 9.136L268.393 7.312C267.289 6.592 265.417 6.16 263.761 6.16C260.497 6.16 258.457 7.696 258.457 9.976C258.457 15.04 266.497 12.568 266.497 15.424C266.497 16.504 265.609 17.152 263.473 17.152C261.817 17.152 260.089 16.6 259.009 15.832L258.049 17.656C259.105 18.496 261.193 19.144 263.305 19.144ZM280.333 8.416V6.28H278.125V19H280.429V12.664C280.429 9.88 281.965 8.368 284.437 8.368C284.605 8.368 284.773 8.368 284.965 8.392V6.16C282.733 6.16 281.149 6.928 280.333 8.416ZM299.184 12.712C299.184 8.8 296.568 6.16 292.896 6.16C289.224 6.16 286.512 8.872 286.512 12.64C286.512 16.432 289.248 19.144 293.352 19.144C295.464 19.144 297.216 18.424 298.368 17.08L297.096 15.592C296.16 16.624 294.912 17.128 293.424 17.128C290.904 17.128 289.104 15.64 288.816 13.408H299.136C299.16 13.192 299.184 12.904 299.184 12.712ZM292.896 8.104C295.128 8.104 296.736 9.616 296.976 11.752H288.816C289.056 9.592 290.688 8.104 292.896 8.104ZM306.031 19.144C309.415 19.144 311.527 17.68 311.527 15.376C311.527 10.432 303.463 12.88 303.463 9.88C303.463 8.872 304.447 8.128 306.463 8.128C307.711 8.128 308.983 8.392 310.135 9.136L311.119 7.312C310.015 6.592 308.143 6.16 306.487 6.16C303.223 6.16 301.183 7.696 301.183 9.976C301.183 15.04 309.223 12.568 309.223 15.424C309.223 16.504 308.335 17.152 306.199 17.152C304.543 17.152 302.815 16.6 301.735 15.832L300.775 17.656C301.831 18.496 303.919 19.144 306.031 19.144ZM325.903 12.712C325.903 8.8 323.287 6.16 319.615 6.16C315.943 6.16 313.231 8.872 313.231 12.64C313.231 16.432 315.967 19.144 320.071 19.144C322.183 19.144 323.935 18.424 325.087 17.08L323.815 15.592C322.879 16.624 321.631 17.128 320.143 17.128C317.623 17.128 315.823 15.64 315.535 13.408H325.855C325.879 13.192 325.903 12.904 325.903 12.712ZM319.615 8.104C321.847 8.104 323.455 9.616 323.695 11.752H315.535C315.775 9.592 317.407 8.104 319.615 8.104ZM331.31 8.416V6.28H329.102V19H331.406V12.664C331.406 9.88 332.942 8.368 335.414 8.368C335.582 8.368 335.75 8.368 335.942 8.392V6.16C333.71 6.16 332.126 6.928 331.31 8.416ZM348.297 6.28L343.833 16.48L339.465 6.28H337.065L342.633 19H344.985L350.553 6.28H348.297ZM363.848 12.712C363.848 8.8 361.232 6.16 357.56 6.16C353.888 6.16 351.176 8.872 351.176 12.64C351.176 16.432 353.912 19.144 358.016 19.144C360.128 19.144 361.88 18.424 363.032 17.08L361.76 15.592C360.824 16.624 359.576 17.128 358.088 17.128C355.568 17.128 353.768 15.64 353.48 13.408H363.8C363.824 13.192 363.848 12.904 363.848 12.712ZM357.56 8.104C359.792 8.104 361.4 9.616 361.64 11.752H353.48C353.72 9.592 355.352 8.104 357.56 8.104ZM376.743 1.192V8.2C375.687 6.832 374.103 6.16 372.303 6.16C368.583 6.16 365.871 8.752 365.871 12.64C365.871 16.528 368.583 19.144 372.303 19.144C374.175 19.144 375.807 18.424 376.839 16.984V19H379.047V1.192H376.743ZM372.495 17.128C370.047 17.128 368.199 15.352 368.199 12.64C368.199 9.928 370.047 8.176 372.495 8.176C374.919 8.176 376.767 9.928 376.767 12.64C376.767 15.352 374.919 17.128 372.495 17.128Z" fill="white"/>
</svg>
